<svg width="60" height="60" viewBox="0 0 60 60" fill="none" xmlns="http://www.w3.org/2000/svg">
  <g clip-path="url(#clip0_0_1379)">
    <rect width="60" height="60" rx="9.9798" fill="#C2D8FA" />
    <circle
      cx="22.9101"
      cy="9.46158"
      r="0.86199"
      transform="rotate(-31.63 22.9101 9.46158)"
      fill="#6498EC"
      fill-opacity="0.3"
    />
    <circle
      cx="16.9769"
      cy="5.59579"
      r="2.56246"
      transform="rotate(-31.63 16.9769 5.59579)"
      fill="#6498EC"
      fill-opacity="0.3"
    />
    <circle
      cx="23.254"
      cy="2.56293"
      r="1.86174"
      transform="rotate(-31.63 23.254 2.56293)"
      fill="#6498EC"
      fill-opacity="0.3"
    />
    <path
      d="M34.4385 2.26504L23.2044 24.4904L18.6542 17.6918C16.5544 14.5545 12.4541 14.5411 11.5835 17.5615L2.95526 40.5791L-2.65529 32.1962C-4.12666 29.9978 -7.68314 24.1479 -9.34271 25.2586L-26.6203 36.8222C-28.2799 37.9329 -22.9868 45.1569 -21.5155 47.3553L7.39024 90.5443C8.86161 92.7428 11.3997 93.6245 13.0592 92.5138L71.1536 53.6322C72.8132 52.5215 72.9657 49.8389 71.4944 47.6405L41.3043 2.53244C39.2044 -0.605057 35.3092 -0.755459 34.4385 2.26504Z"
      fill="#6498EC"
      fill-opacity="0.19"
    />
    <path
      d="M55.7452 -0.626887L38.9745 17.4703L36.6706 13.7617C35.6074 12.0503 31.7947 12.979 30.1262 15.2883L15.5561 33.3427L12.7153 28.7699C11.9703 27.5706 10.3219 24.2975 8.46159 25.4531L-10.9054 37.4844C-12.7657 38.6401 -9.89116 42.4759 -9.14617 43.6751L5.48966 67.2346C6.23466 68.4339 8.34658 68.4692 10.2068 67.3136L75.3266 26.8594C77.1869 25.7037 78.091 23.7947 77.346 22.5955L62.0598 -2.01083C60.9966 -3.72233 57.4137 -2.93625 55.7452 -0.626887Z"
      fill="white"
    />
    <path
      d="M12.6158 51.1276C13.0555 51.7992 13.6143 52.1704 14.2925 52.2413C14.987 52.3014 15.7192 52.0795 16.4891 51.5755C17.1771 51.1251 17.6098 50.678 17.7873 50.2343C17.9647 49.7905 18.018 49.2642 17.9471 48.6554C17.8813 48.0901 18.0286 47.6895 18.3889 47.4536L23.696 43.9793C23.8435 43.8828 24.0038 43.8597 24.1772 43.91C24.3562 43.9332 24.4939 44.0186 24.5904 44.166C25.2445 45.1652 25.552 46.3679 25.5131 47.774C25.4634 49.1637 24.9597 50.6283 24.0019 52.1679C23.0498 53.6804 21.591 55.08 19.6254 56.3668C17.8727 57.5142 16.1369 58.2762 14.4178 58.6527C12.7044 59.0022 11.0873 58.8909 9.56623 58.3188C8.03449 57.7304 6.72714 56.6089 5.64419 54.9545L3.74633 52.0551C2.66337 50.4007 2.16401 48.762 2.24823 47.1391C2.32173 45.4998 2.8667 43.973 3.88312 42.5588C4.90521 41.1175 6.29258 39.8232 8.04524 38.6758C10.0108 37.389 11.8825 36.6201 13.6602 36.3689C15.4436 36.0906 16.9874 36.2149 18.2916 36.7417C19.585 37.2521 20.5588 38.0069 21.2129 39.0061C21.3094 39.1536 21.3378 39.3221 21.2982 39.5119C21.2643 39.6745 21.1736 39.804 21.0262 39.9005L15.7191 43.3748C15.3587 43.6108 14.9326 43.5855 14.4409 43.299C13.9114 42.9904 13.4078 42.8287 12.93 42.8139C12.4523 42.799 11.8695 43.0168 11.1815 43.4671C10.4117 43.9711 9.91536 44.5534 9.69261 45.214C9.48624 45.8639 9.60287 46.5247 10.0425 47.1963L12.6158 51.1276Z"
      fill="#6498EC"
    />
    <path
      d="M53.9136 9.32452C54.0938 9.20657 54.2923 9.17022 54.5091 9.21548C54.7259 9.26074 54.8933 9.37346 55.0112 9.55365L65.4012 25.4264C65.5191 25.6066 65.5555 25.8051 65.5102 26.0219C65.465 26.2387 65.3522 26.4061 65.172 26.5241L60.3563 29.6767C60.1761 29.7946 59.9776 29.831 59.7608 29.7857C59.544 29.7405 59.3766 29.6277 59.2587 29.4476L51.9085 18.2187L46.9945 21.4356L54.3447 32.6645C54.4626 32.8447 54.499 33.0432 54.4537 33.26C54.4084 33.4769 54.2957 33.6442 54.1155 33.7622L49.2998 36.9148C49.1196 37.0328 48.9265 37.0773 48.7204 37.0484C48.5036 37.0032 48.3308 36.8822 48.2022 36.6857L37.8122 20.8129C37.6943 20.6328 37.6579 20.4342 37.7032 20.2174C37.7484 20.0006 37.8612 19.8332 38.0413 19.7152L53.9136 9.32452Z"
      fill="#6498EC"
    />
    <path
      d="M33.1376 36.4887C32.9596 36.6053 32.441 36.8265 32.2248 36.7788C32.0086 36.731 31.729 36.6683 31.6097 36.4861L30.9739 35.5126C30.8546 35.3304 30.831 34.9274 30.8737 34.7101C30.9164 34.4929 31.3451 34.1333 31.5231 34.0168L34.7818 31.8884C34.3321 31.3073 33.3549 30.3681 32.0316 30.2764C31.3778 30.2311 30.695 30.4416 29.983 30.9077C28.6561 31.7763 28.0211 32.8545 28.0782 34.1424C28.0844 34.4696 28.0633 34.72 28.0151 34.8936C27.9669 35.0671 27.8457 35.2174 27.6515 35.3446L22.8941 38.459C22.7485 38.5543 22.5865 38.5894 22.4082 38.5641C22.2352 38.5117 22.0999 38.411 22.0023 38.2619C21.3626 37.2846 21.0869 36.0689 21.1753 34.6148C21.2529 33.1442 21.7653 31.6492 22.7125 30.1299C23.6489 28.594 25.0152 27.2382 26.8113 26.0623C28.5428 24.9288 30.2589 24.1958 31.9598 23.8632C33.6661 23.5035 35.2843 23.6273 36.8145 24.2347C38.3339 24.8255 39.6412 25.9574 40.7364 27.6305L42.6556 30.5625C43.7508 32.2356 44.2706 33.8949 44.2151 35.5404C44.1487 37.1694 43.6147 38.7021 42.6133 40.1386C41.6172 41.5479 40.2535 42.8193 38.522 43.9528C36.7259 45.1286 34.9421 45.8467 33.1708 46.1071C31.3887 46.3509 29.8137 46.2225 28.4457 45.7218C27.067 45.2046 26.0577 44.4573 25.4179 43.48C25.3204 43.3309 25.2876 43.1748 25.3196 43.0119C25.357 42.8218 25.4485 42.6791 25.5941 42.5837L30.3515 39.4693C30.5457 39.3422 30.7319 39.2912 30.9103 39.3165C31.0886 39.3417 31.3265 39.4226 31.6239 39.5592C32.7813 40.1267 34.0235 39.9761 35.3504 39.1075C36.0624 38.6413 36.5284 38.0996 36.7484 37.4823C37.3495 35.8196 36.7382 34.9884 36.3964 34.3603L33.1376 36.4887Z"
      fill="#6498EC"
    />
    <circle
      cx="4.22477"
      cy="13.5228"
      r="3.06207"
      transform="rotate(-31.63 4.22477 13.5228)"
      fill="#6498EC"
    />
    <circle
      cx="1.53858"
      cy="21.1821"
      r="1.86174"
      transform="rotate(-31.63 1.53858 21.1821)"
      fill="#6498EC"
    />
  </g>
  <defs>
    <clipPath id="clip0_0_1379">
      <rect width="60" height="60" rx="9.9798" fill="white" />
    </clipPath>
  </defs>
</svg>